<svg version="1.1" id="Layer_1" xmlns="http://www.w3.org/2000/svg" xmlns:xlink="http://www.w3.org/1999/xlink" x="0px" y="0px"
	 width="100%" viewBox="0 0 400 377" enable-background="new 0 0 400 377" xml:space="preserve">
<path fill="#FFFFFF" opacity="1.000000" stroke="none" 
	d="
M230.000000,378.000000 
	C153.333328,378.000000 77.166664,378.000000 1.000000,378.000000 
	C1.000000,252.333328 1.000000,126.666664 1.000000,1.000000 
	C134.333328,1.000000 267.666656,1.000000 401.000000,1.000000 
	C401.000000,126.666664 401.000000,252.333328 401.000000,378.000000 
	C344.166656,378.000000 287.333344,378.000000 230.000000,378.000000 
M32.640377,67.167999 
	C22.351625,73.198051 12.062873,79.228104 0.596855,85.948135 
	C3.105218,88.618851 4.708325,91.884727 7.088936,92.614586 
	C26.699211,98.626785 46.254326,98.600853 65.580086,90.978149 
	C67.601936,90.180656 70.234520,89.776115 72.263489,90.340530 
	C84.954124,93.870827 97.885330,96.881790 110.108238,101.669609 
	C130.007370,109.464249 149.587631,118.138245 168.977829,127.140343 
	C179.315918,131.939911 188.973526,138.205200 199.199661,143.955963 
	C192.608337,150.952423 185.564804,155.595749 176.481613,156.584869 
	C172.846527,156.980743 169.195435,157.356277 165.615784,158.065063 
	C164.377090,158.310333 162.353577,159.613464 162.407913,160.296600 
	C162.513123,161.619125 163.548981,163.324799 164.709763,164.024353 
	C168.973419,166.593948 173.485306,168.746674 177.834076,171.180832 
	C199.073700,183.069397 220.617416,184.396271 242.642654,173.340195 
	C243.862488,172.727875 245.945862,172.721115 247.142029,173.352219 
	C256.974762,178.540100 266.747528,183.848511 276.431030,189.310760 
	C288.156769,195.924957 299.750183,202.773270 311.455414,209.424301 
	C317.193024,212.684479 322.570709,211.649612 325.943420,206.892853 
	C330.368652,200.651672 329.485016,192.117813 323.819183,186.881699 
	C319.419373,182.815628 314.732056,179.026505 310.646851,174.669571 
	C308.779388,172.677872 307.265350,169.710831 306.940948,167.023224 
	C305.152863,152.207733 301.729858,138.046463 293.595154,125.232018 
	C280.361267,104.384872 261.772369,89.532829 240.337189,78.197708 
	C233.236786,74.442955 229.452957,69.852760 227.764664,62.093464 
	C223.296478,41.557869 215.512039,22.394138 201.660461,6.179874 
	C200.250092,4.528934 198.232239,3.396963 196.496292,2.024170 
	C195.898560,4.266474 194.812454,6.501965 194.781052,8.752168 
	C194.548859,25.395103 189.442123,40.126347 178.197998,52.568432 
	C176.145706,54.839378 174.132248,55.968750 170.527969,55.720520 
	C158.251175,54.875015 145.876938,54.064781 133.615387,54.699593 
	C115.041672,55.661201 96.533844,57.876442 77.988411,59.445538 
	C76.741432,59.551041 74.891785,59.113533 74.202339,58.236706 
	C64.628395,46.060780 51.629887,38.815338 37.830585,32.726402 
	C36.383362,32.087814 34.612125,32.183514 32.991219,31.938538 
	C32.952080,33.790737 32.458515,35.777771 32.960453,37.469421 
	C34.370697,42.222256 36.270630,46.827045 37.830986,51.538723 
	C40.143658,58.522141 39.035248,62.101345 32.640377,67.167999 
z"/>
<path fill="#217279" opacity="1.000000" stroke="none" 
	d="
M32.974670,67.016449 
	C39.035248,62.101345 40.143658,58.522141 37.830986,51.538723 
	C36.270630,46.827045 34.370697,42.222256 32.960453,37.469421 
	C32.458515,35.777771 32.952080,33.790737 32.991219,31.938538 
	C34.612125,32.183514 36.383362,32.087814 37.830585,32.726402 
	C51.629887,38.815338 64.628395,46.060780 74.202339,58.236706 
	C74.891785,59.113533 76.741432,59.551041 77.988411,59.445538 
	C96.533844,57.876442 115.041672,55.661201 133.615387,54.699593 
	C145.876938,54.064781 158.251175,54.875015 170.527969,55.720520 
	C174.132248,55.968750 176.145706,54.839378 178.197998,52.568432 
	C189.442123,40.126347 194.548859,25.395103 194.781052,8.752168 
	C194.812454,6.501965 195.898560,4.266474 196.496277,2.024168 
	C198.232239,3.396963 200.250092,4.528934 201.660461,6.179874 
	C215.512039,22.394138 223.296478,41.557869 227.764664,62.093464 
	C229.452957,69.852760 233.236786,74.442955 240.337189,78.197708 
	C261.772369,89.532829 280.361267,104.384872 293.595154,125.232018 
	C301.729858,138.046463 305.152863,152.207733 306.940948,167.023224 
	C307.265350,169.710831 308.779388,172.677872 310.646851,174.669571 
	C314.732056,179.026505 319.419373,182.815628 323.819183,186.881699 
	C329.485016,192.117813 330.368652,200.651672 325.943420,206.892853 
	C322.570709,211.649612 317.193024,212.684479 311.455414,209.424301 
	C299.750183,202.773270 288.156769,195.924957 276.431030,189.310760 
	C266.747528,183.848511 256.974762,178.540100 247.142029,173.352219 
	C245.945862,172.721115 243.862488,172.727875 242.642654,173.340195 
	C220.617416,184.396271 199.073700,183.069397 177.834076,171.180832 
	C173.485306,168.746674 168.973419,166.593948 164.709763,164.024353 
	C163.548981,163.324799 162.513123,161.619125 162.407913,160.296600 
	C162.353577,159.613464 164.377090,158.310333 165.615784,158.065063 
	C169.195435,157.356277 172.846527,156.980743 176.481613,156.584869 
	C185.564804,155.595749 192.608337,150.952423 199.199661,143.955963 
	C188.973526,138.205200 179.315918,131.939911 168.977829,127.140343 
	C149.587631,118.138245 130.007370,109.464249 110.108238,101.669609 
	C97.885330,96.881790 84.954124,93.870827 72.263489,90.340530 
	C70.234520,89.776115 67.601936,90.180656 65.580086,90.978149 
	C46.254326,98.600853 26.699211,98.626785 7.088936,92.614586 
	C4.708325,91.884727 3.105218,88.618851 0.596855,85.948135 
	C12.062873,79.228104 22.351625,73.198051 32.974670,67.016449 
z"/>
</svg>