<?xml version="1.0" standalone="no"?>
<!DOCTYPE svg PUBLIC "-//W3C//DTD SVG 20010904//EN"
 "http://www.w3.org/TR/2001/REC-SVG-20010904/DTD/svg10.dtd">
<svg version="1.0" xmlns="http://www.w3.org/2000/svg"
 width="578.000000pt" height="617.000000pt" viewBox="0 0 578.000000 617.000000"
 preserveAspectRatio="xMidYMid meet">

<g transform="translate(0.000000,617.000000) scale(0.100000,-0.100000)"
fill="#fff" stroke="none">
<path d="M2124 5827 c-38 -29 -370 -280 -739 -557 -773 -581 -770 -579 -769
-594 1 -8 849 -1141 1135 -1515 l49 -65 0 -1243 0 -1243 1250 0 1250 0 2 1247
3 1247 440 324 c242 178 508 375 592 436 l152 112 -365 495 c-201 272 -399
542 -442 601 -42 59 -82 105 -89 103 -10 -3 -261 -187 -908 -665 -49 -37 -134
-99 -189 -139 -54 -40 -101 -69 -105 -64 -51 73 -1186 1573 -1191 1573 -4 0
-38 -24 -76 -53z m627 -735 c604 -803 593 -787 584 -802 -3 -6 -194 -152 -423
-324 -229 -172 -570 -428 -757 -569 l-339 -255 -28 36 c-16 21 -275 365 -577
766 l-550 729 33 26 c19 14 341 258 717 541 376 283 706 532 733 552 l49 37
21 -27 c13 -15 254 -334 537 -710z m2265 -541 c337 -457 413 -566 402 -576 -7
-7 -89 -68 -183 -137 -93 -68 -342 -251 -553 -407 -211 -155 -387 -281 -392
-279 -16 5 -841 1130 -835 1137 26 27 1123 829 1132 828 7 -1 200 -256 429
-566z m-1411 -546 c88 -121 272 -370 408 -554 l248 -336 -600 -3 c-330 -1
-873 -1 -1206 0 l-607 3 773 583 774 582 25 -28 c14 -16 97 -127 185 -247z
m655 -2145 l0 -1210 -1210 0 -1210 0 0 1210 0 1210 1210 0 1210 0 0 -1210z"/>
</g>
</svg>
